[img]http://leetleech.org/images/41806601479635979754.jpg[/img]

[b]Salt (2010) R5 LiNE XviD-SKITTLES[/b]

[img]http://leetleech.org/images/39185456263711143641.png[/img]

Video
ID                               : 0
Format                           : MPEG-4 Visual
Format profile                   : Advanced Simple@L5
Format settings, BVOP            : Yes
Format settings, QPel            : No
Format settings, GMC             : No warppoints
Format settings, Matrix          : Default (H.263)
Muxing mode                      : Packed bitstream
Codec ID                         : XVID
Codec ID/Hint                    : XviD
Duration                         : 1h 35mn
Bit rate                         : 889 Kbps
Width                            : 640 pixels
Height                           : 272 pixels
Display aspect ratio             : 2.35:1
Frame rate                       : 25.000 fps
Color space                      : YUV
Chroma subsampling               : 4:2:0
Bit depth                        : 8 bits
Scan type                        : Progressive
Bits/(Pixel*Frame)               : 0.204
Stream size                      : 610 MiB (84%)
Writing library                  : XviD 1.2.1 (UTC 2008-12-04)

Audio
ID                               : 1
Format                           : MPEG Audio
Format version                   : Version 1
Format profile                   : Layer 3
Mode                             : Joint stereo
Mode extension                   : MS Stereo
Codec ID                         : 55
Codec ID/Hint                    : MP3
Duration                         : 1h 35mn
Bit rate mode                    : Variable
Bit rate                         : 161 Kbps
Nominal bit rate                 : 170 Kbps
Channel(s)                       : 2 channels
Sampling rate                    : 48.0 KHz
Stream size                      : 110 MiB (15%)
Alignment                        : Aligned on interleaves
Interleave, duration             : 24 ms (0.60 video frame)
Interleave, preload duration     : 531 ms
Writing library                  : LAME3.97 
Encoding settings                : -m j -V 2 -q 3 -lowpass 17.5 --abr 170

Audio is from the LAP's release thanks guys
 
http://www.imdb.com/title/tt0944835/

[img]http://leetleech.org/images/46941880339015444838.png[/img]

Angelina Jolie	... 	Evelyn Salt
Liev Schreiber	... 	Ted Winter
Chiwetel Ejiofor... 	Peabody
Daniel Olbrychski... 	Vassily Orlov
August Diehl	... 	Mike Krause
Daniel Pearce	... 	Young Orlov
Hunt Block	... 	U.S. President Lewis
Andre Braugher	... 	Secretary of Defense
Olek Krupa	... 	Russian President Matveyev
Cassidy Hinkle	... 	12-Year-Old Chenkov
Corey Stoll	... 	Shnaider
Vladislav Koulikov... 	Chenkov's Father
Olya Zueva	... 	Chenkov's Mother
Kevin O'Donnell	... 	Young CIA Officer
Gaius Charles	... 	CIA Officer

[img]http://leetleech.org/images/70187465700988366433.png[/img]

Genre:
Action | Mystery | Thriller

Plot:
A CIA agent goes on the run after a defector accuses her of
being a Russian spy.

[img]http://leetleech.org/images/64476088802225496360.png[/img]

[img]http://leetleech.org/images/40362413520816091160.png[/img]
[img]http://leetleech.org/images/11134312989358288857.png[/img]
[img]http://leetleech.org/images/46512670345480594115.png[/img]
[img]http://leetleech.org/images/88349966542664440423.png[/img]
[img]http://leetleech.org/images/60106032820899118095.png[/img]
[img]http://leetleech.org/images/58947208154389822839.png[/img]